<svg xmlns="http://www.w3.org/2000/svg" width="29.627" height="25.395" viewBox="0 0 29.627 25.395">
  <path id="Path_239" data-name="Path 239" d="M10.581,4.116H12.7V6.232H10.581Zm-4.232,0H8.465V6.232H6.349Zm-4.232,0H4.232V6.232H2.116ZM27.511,25.279H2.116V8.349H27.511Zm0-19.046h-12.7V4.116h12.7Zm2.116-2.116A2.122,2.122,0,0,0,27.511,2H2.116A2.122,2.122,0,0,0,0,4.116V25.279a2.122,2.122,0,0,0,2.116,2.116H27.511a2.122,2.122,0,0,0,2.116-2.116Z" transform="translate(0 -2)" fill="#fd0" stroke="#000" stroke-width="0" fill-rule="evenodd"/>
</svg>
