<svg xmlns="http://www.w3.org/2000/svg" width="39.959" height="37.292" viewBox="0 0 39.959 37.292">
  <path id="Path_235" data-name="Path 235" d="M27.079,2.724a1.332,1.332,0,0,0-2.546-.783L13.878,36.568a1.332,1.332,0,1,0,2.546.783L27.079,2.724ZM12.1,9.38a1.332,1.332,0,0,1,0,1.886l-8.382,8.38,8.382,8.38a1.333,1.333,0,0,1-1.886,1.886L.89,20.589a1.332,1.332,0,0,1,0-1.886L10.213,9.38a1.332,1.332,0,0,1,1.886,0Zm16.759,0a1.332,1.332,0,0,0,0,1.886l8.382,8.38-8.382,8.38a1.333,1.333,0,0,0,1.886,1.886l9.323-9.323a1.332,1.332,0,0,0,0-1.886L30.744,9.38a1.332,1.332,0,0,0-1.886,0Z" transform="translate(-0.499 -1)" fill="#fd0"/>
</svg>
