<svg xmlns="http://www.w3.org/2000/svg" width="31.936" height="31.936" viewBox="0 0 31.936 31.936">
  <g id="Group_98" data-name="Group 98" transform="translate(0)">
    <path id="Path_27" data-name="Path 27" d="M0,0H31.936V31.936H0Z" transform="translate(0)" fill="none" stroke="#000" stroke-width="0"/>
    <path id="Path_28" data-name="Path 28" d="M20.618,14.323l2.089-2.089-4.99-4.99L15.628,9.334l-5.509-5.5a2.666,2.666,0,0,0-3.766,0L3.825,6.366a2.666,2.666,0,0,0,0,3.766l5.5,5.5L3,21.961v4.99H7.99l6.334-6.334,5.5,5.5a2.665,2.665,0,0,0,3.766,0l2.528-2.528a2.666,2.666,0,0,0,0-3.766l-5.5-5.5Zm-9.394-.585-5.509-5.5L8.229,5.714,9.919,7.4,8.349,8.988l1.876,1.876L11.809,9.28l1.929,1.929Zm10.485,10.5-5.5-5.5,2.528-2.528,1.929,1.929-1.583,1.583L20.964,21.6l1.583-1.583,1.69,1.69ZM26.566,8.375a1.325,1.325,0,0,0,0-1.876L23.452,3.386a1.342,1.342,0,0,0-1.876,0L19.141,5.821l4.99,4.99,2.435-2.435Z" transform="translate(0.992 0.992)" fill="#fd0" stroke="#000" stroke-width="0"/>
  </g>
</svg>
