<svg xmlns="http://www.w3.org/2000/svg" width="32.542" height="26.46" viewBox="0 0 32.542 26.46">
  <path id="Path_25" data-name="Path 25" d="M31.935,11.551l-2,3.067a13.461,13.461,0,0,1-.359,12.565H6.983A13.436,13.436,0,0,1,8.792,11.464,12.88,12.88,0,0,1,24.112,8.7l3.015-2.039A16.088,16.088,0,0,0,7.1,8.6,16.786,16.786,0,0,0,4.18,28.84a3.25,3.25,0,0,0,2.8,1.658H29.555a3.25,3.25,0,0,0,2.836-1.658,16.819,16.819,0,0,0-.44-17.306ZM15.98,22.889a3.221,3.221,0,0,0,4.612,0L29.816,8.816,15.98,18.2a3.356,3.356,0,0,0,0,4.691Z" transform="translate(-2.032 -4.038)" fill="#fd0" stroke="#000" stroke-width="0"/>
</svg>
