<svg xmlns="http://www.w3.org/2000/svg" width="30.686" height="30.686" viewBox="0 0 30.686 30.686">
  <path id="Path_237" data-name="Path 237" d="M17.343,2A15.36,15.36,0,0,0,2,17.343V23.7a2.968,2.968,0,0,0,3.069,2.849H6.6a1.534,1.534,0,0,0,1.534-1.534V17.124A1.534,1.534,0,0,0,6.6,15.589H5.21a12.257,12.257,0,0,1,24.267,0H28.083a1.534,1.534,0,0,0-1.534,1.534v9.425a3.072,3.072,0,0,1-3.069,3.069H20.412V28.083H14.274v4.6H23.48a6.143,6.143,0,0,0,6.137-6.137A2.968,2.968,0,0,0,32.686,23.7V17.343A15.36,15.36,0,0,0,17.343,2Z" transform="translate(-2 -2)" fill="#fd0" stroke="#000" stroke-width="0"/>
</svg>
