<svg xmlns="http://www.w3.org/2000/svg" width="28.193" height="29.021" viewBox="0 0 28.193 29.021">
  <path id="Path_238" data-name="Path 238" d="M22.645,26.283a3.638,3.638,0,1,0-3.638-3.638A3.638,3.638,0,0,0,22.645,26.283ZM13.186,5.91,16.1,3M9.548,13.186A3.638,3.638,0,1,0,5.91,9.548,3.638,3.638,0,0,0,9.548,13.186Zm.728,8.731L21.917,10.276M6.638,29.193A3.638,3.638,0,1,0,3,25.555,3.638,3.638,0,0,0,6.638,29.193ZM25.555,10.276a3.638,3.638,0,1,0-3.638-3.638A3.638,3.638,0,0,0,25.555,10.276ZM16.1,29.193l2.91-2.91" transform="translate(-2 -1.586)" fill="none" stroke="#fd0" stroke-linecap="round" stroke-linejoin="round" stroke-width="2"/>
</svg>
