<svg xmlns="http://www.w3.org/2000/svg" width="612.005" height="591.777" viewBox="0 0 612.005 591.777">
  <g id="undraw_agreement_re_d4dv" transform="translate(0 0)">
    <path id="Path_147" data-name="Path 147" d="M907.6,796.958V737.612S930.73,779.686,907.6,796.958Z" transform="translate(-349.249 -205.772)" fill="#f1f1f1"/>
    <path id="Path_148" data-name="Path 148" d="M899.772,801.152l-43.718-40.134S902.689,772.434,899.772,801.152Z" transform="translate(-339.99 -209.976)" fill="#f1f1f1"/>
    <path id="Path_149" data-name="Path 149" d="M636.764,351.186,404.771,486.777a3.549,3.549,0,0,1-4.849-1.272L250.736,230.253a3.549,3.549,0,0,1,1.272-4.849L484,89.812a3.549,3.549,0,0,1,4.849,1.272L638.034,346.336a3.549,3.549,0,0,1-1.271,4.85Z" transform="translate(-231.177 -89.328)" fill="#fff"/>
    <path id="Path_150" data-name="Path 150" d="M636.764,351.186,404.771,486.777a3.549,3.549,0,0,1-4.849-1.272L250.736,230.253a3.549,3.549,0,0,1,1.272-4.849L484,89.812a3.549,3.549,0,0,1,4.849,1.272L638.034,346.336a3.549,3.549,0,0,1-1.271,4.85ZM252.723,226.627a2.129,2.129,0,0,0-.763,2.91L401.147,484.789a2.129,2.129,0,0,0,2.91.763L636.048,349.961a2.129,2.129,0,0,0,.763-2.91L487.625,91.8a2.129,2.129,0,0,0-2.91-.763Z" transform="translate(-231.177 -89.328)" fill="#3f3d56"/>
    <path id="Path_151" data-name="Path 151" d="M413.912,273.629l-57.539,33.629a3.549,3.549,0,0,1-4.849-1.272l-33.629-57.539a3.549,3.549,0,0,1,1.272-4.849L376.7,209.969a3.549,3.549,0,0,1,4.849,1.272l33.629,57.539a3.549,3.549,0,0,1-1.272,4.849Zm-94.031-28.806a2.129,2.129,0,0,0-.763,2.91l33.629,57.539a2.129,2.129,0,0,0,2.91.763L413.2,272.405a2.129,2.129,0,0,0,.763-2.91L380.33,211.957a2.129,2.129,0,0,0-2.91-.763Z" transform="translate(-243.239 -110.911)" fill="#f2f2f2"/>
    <path id="Path_152" data-name="Path 152" d="M398.9,294.129l-57.539,33.629a3.194,3.194,0,0,1-4.364-1.145l-33.629-57.539a3.194,3.194,0,0,1,1.145-4.364l57.539-33.629a3.194,3.194,0,0,1,4.364,1.145l33.629,57.539A3.194,3.194,0,0,1,398.9,294.129Z" transform="translate(-240.638 -114.711)" fill="#fd0"/>
    <path id="Path_153" data-name="Path 153" d="M548.743,253.83,368.782,359.012a3.191,3.191,0,0,1-3.22-5.509L545.524,248.322a3.191,3.191,0,0,1,3.22,5.509Z" transform="translate(-251.604 -117.808)" fill="#ccc"/>
    <path id="Path_154" data-name="Path 154" d="M518.8,307.923,382.3,387.7a3.19,3.19,0,1,1-3.22-5.509l136.5-79.78a3.191,3.191,0,0,1,3.22,5.509Z" transform="translate(-254.033 -127.524)" fill="#ccc"/>
    <path id="Path_155" data-name="Path 155" d="M520.262,169.207l-79.575,46.509a3.19,3.19,0,1,1-3.22-5.509L517.043,163.7a3.19,3.19,0,1,1,3.22,5.509Z" transform="translate(-264.52 -102.608)" fill="#ccc"/>
    <path id="Path_156" data-name="Path 156" d="M513.921,206.486l-59.716,34.9a3.19,3.19,0,0,1-3.22-5.509l59.716-34.9a3.191,3.191,0,1,1,3.22,5.509Z" transform="translate(-266.948 -109.304)" fill="#ccc"/>
    <path id="Path_157" data-name="Path 157" d="M575.781,300.091,395.819,405.272a3.19,3.19,0,1,1-3.22-5.509L572.561,294.582a3.19,3.19,0,0,1,3.22,5.509Z" transform="translate(-256.461 -126.117)" fill="#ccc"/>
    <path id="Path_158" data-name="Path 158" d="M545.84,354.183l-136.5,79.78a3.19,3.19,0,0,1-3.22-5.509l136.5-79.78a3.19,3.19,0,0,1,3.22,5.509Z" transform="translate(-258.889 -135.833)" fill="#ccc"/>
    <path id="Path_159" data-name="Path 159" d="M602.818,346.351,422.857,451.533a3.191,3.191,0,0,1-3.22-5.509L599.6,340.842a3.19,3.19,0,1,1,3.22,5.509Z" transform="translate(-261.317 -134.426)" fill="#ccc"/>
    <path id="Path_160" data-name="Path 160" d="M616.337,369.481,436.375,474.663a3.191,3.191,0,0,1-3.22-5.509L613.117,363.973a3.19,3.19,0,1,1,3.22,5.509Z" transform="translate(-263.745 -138.581)" fill="#ccc"/>
    <path id="Path_161" data-name="Path 161" d="M584.934,450.366a69.481,69.481,0,0,0,6.728-9.41c1.773-2.993,3.513-6.194,3.9-9.7a9.585,9.585,0,0,0-2.87-8.192,6.745,6.745,0,0,0-7.914-.9,8.047,8.047,0,0,0-4.039,7.186,10.631,10.631,0,0,0,4.542,8.051c5.319,3.854,13.626,3.652,19.3.72,6.386-3.3,9.685-11.946,4.668-17.862-1.044-1.23-2.78.145-2.519,1.472a7.154,7.154,0,0,0,14.175-1.752l-2.255,1.318a17.22,17.22,0,0,0,17.129-1.838,15.971,15.971,0,0,0,3.205-3.1c1.1-1.44,2.958-2.371,4.46-3.408l10.821-7.477c1.592-1.1.078-3.721-1.527-2.612l-9.8,6.772c-1.633,1.128-3.277,2.243-4.9,3.386-1.16.817-1.874,2.136-2.93,3.106a14.183,14.183,0,0,1-14.974,2.533,1.531,1.531,0,0,0-2.255,1.318,4.141,4.141,0,1,1-8.225.974l-2.518,1.472c3.236,3.816,1.081,9.67-2.647,12.231a17.168,17.168,0,0,1-15.032,1.581,8.869,8.869,0,0,1-5.222-4.791,5.286,5.286,0,0,1,1.2-6.049,3.792,3.792,0,0,1,5.273-.056,6.783,6.783,0,0,1,1.8,6.119c-.485,3.031-2.16,5.826-3.719,8.415a64.645,64.645,0,0,1-6.019,8.382c-1.248,1.477.905,3.605,2.166,2.113Z" transform="translate(-290.538 -145.596)" fill="#fd0"/>
    <path id="Path_162" data-name="Path 162" d="M615.933,546.953a7.1,7.1,0,0,1,.715.862L650.16,547l3.909-7.144,11.552,4.491-5.692,13.319a5.407,5.407,0,0,1-5.621,3.243l-37.862-4.574a7.1,7.1,0,1,1-.514-9.378Z" transform="translate(-294.677 -170.25)" fill="#ffb7b7"/>
    <path id="Path_163" data-name="Path 163" d="M521.193,697.951H510.174l-5.242-42.5h16.262Z" transform="translate(-90.695 -117.73)" fill="#ffb7b7"/>
    <path id="Path_164" data-name="Path 164" d="M747.4,806.478H711.87v-.449A13.83,13.83,0,0,1,725.7,792.2h21.7Z" transform="translate(-314.091 -215.577)" fill="#2f2e41"/>
    <path id="Path_165" data-name="Path 165" d="M400.574,697l-10.133-4.329,11.875-41.144,14.955,6.389Z" transform="translate(-70.13 -117.026)" fill="#ffb7b7"/>
    <path id="Path_166" data-name="Path 166" d="M620.675,804.618,588,790.661l.177-.413a13.83,13.83,0,0,1,18.149-7.285h0l19.955,8.525Z" transform="translate(-291.842 -213.717)" fill="#2f2e41"/>
    <path id="Path_167" data-name="Path 167" d="M459.293,470.053l-.8,12.912,23.291,2.492,24.37,2.608-7.173-19.606Z" transform="translate(-82.354 -84.144)" fill="#ffb7b7"/>
    <path id="Path_168" data-name="Path 168" d="M682.621,559.353l-9.048-63.077,15.683-5.14,4.606-6.317,22.415,1.326,3.291,7.372,11.952,5.648-1.837,34.113,1.34,28.537Z" transform="translate(-307.213 -160.366)" fill="#2f2e41"/>
    <path id="Path_169" data-name="Path 169" d="M674.168,544.987,658.217,538.6l.068-.284c.068-.286,6.858-28.658,7.759-33.217.939-4.75,4.37-6.063,4.516-6.117l.106-.039,6.313,1.922,2.773,21.785Z" transform="translate(-304.454 -162.903)" fill="#2f2e41"/>
    <path id="Path_170" data-name="Path 170" d="M635.147,748.04l-21.234-4.356,33.939-93.65,11.615-31.943s7.367-25.611,10.7-35.523l2.009-13.3,47.551,5.263s13.281,19.5,9.246,51.295l1.825,119.489-21.235,1.089L691.772,625.9l-31.217,66.063s-9.839,28.191-16.879,34.3Z" transform="translate(-296.497 -175.535)" fill="#2f2e41"/>
    <path id="Path_171" data-name="Path 171" d="M718.138,572.727a7.126,7.126,0,0,1,1.119.062l22.183-25.132-2.581-7.724,11.148-5.418,5.9,13.23a5.408,5.408,0,0,1-1.443,6.327l-29.1,24.654a7.1,7.1,0,1,1-7.227-6Z" transform="translate(-313.982 -169.292)" fill="#ffb7b7"/>
    <path id="Path_172" data-name="Path 172" d="M743.864,544.315l-9.254-21.767,3.609-15.162,3.889-4.913a2.24,2.24,0,0,1,1.8.017c1.434.577,2.656,2.346,3.63,5.258l8.672,24.7Z" transform="translate(-318.176 -163.504)" fill="#2f2e41"/>
    <path id="Path_173" data-name="Path 173" d="M687.367,466.58v-16.41a21.99,21.99,0,1,1,43.979,0v16.41a2.957,2.957,0,0,1-2.954,2.954H690.321a2.957,2.957,0,0,1-2.954-2.954Z" transform="translate(-309.69 -150.192)" fill="#2f2e41"/>
    <circle id="Ellipse_52" data-name="Ellipse 52" cx="16.122" cy="16.122" r="16.122" transform="translate(379.026 286.715)" fill="#ffb7b7"/>
    <path id="Path_174" data-name="Path 174" d="M681.026,452.776a17.415,17.415,0,0,1,17.395-17.395H701.7A17.414,17.414,0,0,1,719.1,452.775v.328h-6.936l-2.366-6.624-.473,6.624h-3.585l-1.194-3.342-.239,3.342h-23.28Z" transform="translate(-308.551 -151.486)" fill="#2f2e41"/>
    <path id="Path_175" data-name="Path 175" d="M706.605,474.267a2.91,2.91,0,0,1-.231-3.09c3.478-6.615,8.348-18.839,1.884-26.378l-.465-.542h18.765v28.173l-17.047,3.008a3.018,3.018,0,0,1-.523.046,2.941,2.941,0,0,1-2.384-1.218Z" transform="translate(-313.044 -153.08)" fill="#2f2e41"/>
    <path id="Path_176" data-name="Path 176" d="M212.9,687.53l9.958,3.559,18.466-36.716-14.7-5.252Z" transform="translate(-38.241 -116.594)" fill="#9f616a"/>
    <path id="Path_177" data-name="Path 177" d="M432.6,793.1l4.612-12.9,19.611,7.009a13.288,13.288,0,0,1,8.032,16.965l-.145.406Z" transform="translate(-263.93 -213.421)" fill="#2f2e41"/>
    <path id="Path_178" data-name="Path 178" d="M291.836,699.015H302.41l5.031-40.789H291.834Z" transform="translate(-52.419 -118.229)" fill="#9f616a"/>
    <path id="Path_179" data-name="Path 179" d="M515.548,793.066h20.827a13.272,13.272,0,0,1,13.272,13.272v.431h-34.1Z" transform="translate(-278.828 -215.732)" fill="#2f2e41"/>
    <path id="Path_180" data-name="Path 180" d="M489.459,477.639l4.6-9.088s17.133,4.292,18.69,14.222Z" transform="translate(-274.142 -157.444)" fill="#f1f1f1"/>
    <path id="Path_181" data-name="Path 181" d="M234.8,516.582,247.3,586.375,214.093,645.1l19.839,7.763,33.641-56.93,4.313-15.526,2.587,81.082,17.893-.543,8.2-75.711-13.157-70.383Z" transform="translate(-38.455 -92.478)" fill="#2f2e41"/>
    <path id="Path_182" data-name="Path 182" d="M488.54,598.85c-18.374,0-30.039-3.514-30.3-3.57l-.423-.09,9.57-44.371.431-40.928c0-17.344,11.415-30.131,13-31.311a7.462,7.462,0,0,1,3.969-4.877c3.808-1.728,8.461.345,8.656.435l13.966,5.236.066.194c.168.5,18.563,60.884,18.563,60.884s-1.113,52.763-1.5,54.491C524.534,594.941,498.749,598.85,488.54,598.85Z" transform="translate(-268.459 -158.246)" fill="#3f3d56"/>
    <circle id="Ellipse_53" data-name="Ellipse 53" cx="18.876" cy="18.876" r="18.876" transform="translate(215.325 270.495)" fill="#9f616a"/>
    <path id="Path_183" data-name="Path 183" d="M259.823,432.715l33.023,46.074,4.876-21.516Z" transform="translate(-46.669 -77.723)" opacity="0.2"/>
    <path id="Path_184" data-name="Path 184" d="M604.137,557.068a8.1,8.1,0,0,1-12.162-2.521L563.551,559.1l6.158-13.632,26.047-2.23a8.144,8.144,0,0,1,8.38,13.834Z" transform="translate(-287.451 -170.727)" fill="#9f616a"/>
    <path id="Path_185" data-name="Path 185" d="M345.842,455.619l10.213-1,2.83,14.247-12.851.227Z" transform="translate(-62.12 -81.657)" fill="#f1f1f1"/>
    <path id="Path_186" data-name="Path 186" d="M566.479,553.841l-50.018-4.454L491.2,509.221l-.078-.355a13.828,13.828,0,0,1,25.815-9.259l14.826,28.919,29.922,4.523Z" transform="translate(-274.384 -161.671)" fill="#3f3d56"/>
    <path id="Path_187" data-name="Path 187" d="M491.908,452.627l15.667.562c.955.034,3.547-10.272,3.886-12.41a5.835,5.835,0,0,1,6.087-4.72c1.173.111,4.13-2.08,7.182-4.675,5.793-4.925,5.492-14.176-.872-18.338q-.261-.171-.512-.312a27.879,27.879,0,0,0-13.312-3.059c-4.171-.052-8.459.473-12.134,2.447-6.587,3.539-10.093,11.273-10.4,18.744s2.087,14.777,4.805,21.743" transform="translate(-273.786 -146.868)" fill="#2f2e41"/>
    <path id="Path_188" data-name="Path 188" d="M837.858,810.313H227.82a.82.82,0,0,1,0-1.641H838.185a.82.82,0,0,1,.82.82C839,809.945,838.312,810.313,837.858,810.313Z" transform="translate(-227 -218.535)" fill="#cbcbcb"/>
  </g>
</svg>
