<svg xmlns="http://www.w3.org/2000/svg" xmlns:xlink="http://www.w3.org/1999/xlink" width="92.158" height="87.208" viewBox="0 0 92.158 87.208">
  <defs>
    <filter id="Path_234" x="0" y="0" width="92.158" height="87.208" filterUnits="userSpaceOnUse">
      <feOffset dy="3" input="SourceAlpha"/>
      <feGaussianBlur stdDeviation="3" result="blur"/>
      <feFlood flood-opacity="0.502"/>
      <feComposite operator="in" in2="blur"/>
      <feComposite in="SourceGraphic"/>
    </filter>
  </defs>
  <g transform="matrix(1, 0, 0, 1, 0, 0)" filter="url(#Path_234)">
    <path id="Path_234-2" data-name="Path 234" d="M49.828,4.2A2.472,2.472,0,0,0,45.1,2.746L25.329,67.009a2.472,2.472,0,0,0,4.726,1.453L49.828,4.2Zm-27.8,12.353a2.472,2.472,0,0,1,0,3.5L6.47,35.6,22.027,51.155a2.475,2.475,0,1,1-3.5,3.5l-17.3-17.3a2.472,2.472,0,0,1,0-3.5l17.3-17.3a2.472,2.472,0,0,1,3.5,0Zm31.1,0a2.472,2.472,0,0,0,0,3.5L68.686,35.6,53.13,51.155a2.475,2.475,0,1,0,3.5,3.5l17.3-17.3a2.472,2.472,0,0,0,0-3.5l-17.3-17.3a2.472,2.472,0,0,0-3.5,0Z" transform="translate(8.5 5)" fill="#fd0"/>
  </g>
</svg>
