<svg xmlns="http://www.w3.org/2000/svg" xmlns:xlink="http://www.w3.org/1999/xlink" width="78.319" height="78.319" viewBox="0 0 78.319 78.319">
  <defs>
    <filter id="Path_198" x="0" y="0" width="78.319" height="78.319" filterUnits="userSpaceOnUse">
      <feOffset dy="3" input="SourceAlpha"/>
      <feGaussianBlur stdDeviation="3" result="blur"/>
      <feFlood flood-opacity="0.161"/>
      <feComposite operator="in" in2="blur"/>
      <feComposite in="SourceGraphic"/>
    </filter>
    <filter id="Path_199" x="27.144" y="15.08" width="36.096" height="36.096" filterUnits="userSpaceOnUse">
      <feOffset dy="3" input="SourceAlpha"/>
      <feGaussianBlur stdDeviation="3" result="blur-2"/>
      <feFlood flood-opacity="0.161"/>
      <feComposite operator="in" in2="blur-2"/>
      <feComposite in="SourceGraphic"/>
    </filter>
  </defs>
  <g id="Group_95" data-name="Group 95" transform="translate(9 6)">
    <g transform="matrix(1, 0, 0, 1, -9, -6)" filter="url(#Path_198)">
      <path id="Path_198-2" data-name="Path 198" d="M32.16,2a30.16,30.16,0,1,0,30.16,30.16A30.194,30.194,0,0,0,32.16,2Zm0,54.287A24.128,24.128,0,1,1,56.287,32.16,24.156,24.156,0,0,1,32.16,56.287Z" transform="translate(7 4)" fill="#fd0"/>
    </g>
    <g transform="matrix(1, 0, 0, 1, -9, -6)" filter="url(#Path_199)">
      <path id="Path_199-2" data-name="Path 199" d="M17.032,7H11V25.1H29.1V19.064H17.032Z" transform="translate(25.14 14.08)" fill="#fd0"/>
    </g>
  </g>
</svg>
