<svg xmlns="http://www.w3.org/2000/svg" xmlns:xlink="http://www.w3.org/1999/xlink" width="315.356" height="351.868" viewBox="0 0 315.356 351.868">
  <defs>
    <filter id="Path_2" x="227.282" y="149.894" width="88.074" height="88.074" filterUnits="userSpaceOnUse">
      <feOffset dy="3" input="SourceAlpha"/>
      <feGaussianBlur stdDeviation="3" result="blur"/>
      <feFlood/>
      <feComposite operator="in" in2="blur"/>
      <feComposite in="SourceGraphic"/>
    </filter>
    <filter id="Path_2-2" x="227.282" y="149.894" width="88.074" height="88.074" filterUnits="userSpaceOnUse">
      <feOffset input="SourceAlpha"/>
      <feGaussianBlur stdDeviation="10" result="blur-2"/>
      <feFlood flood-opacity="0.2" result="color"/>
      <feComposite operator="out" in="SourceGraphic" in2="blur-2"/>
      <feComposite operator="in" in="color"/>
      <feComposite operator="in" in2="SourceGraphic"/>
    </filter>
    <filter id="Path_3" x="176.233" y="162.378" width="88.075" height="88.075" filterUnits="userSpaceOnUse">
      <feOffset dy="3" input="SourceAlpha"/>
      <feGaussianBlur stdDeviation="3" result="blur-3"/>
      <feFlood/>
      <feComposite operator="in" in2="blur-3"/>
      <feComposite in="SourceGraphic"/>
    </filter>
    <filter id="Path_3-2" x="176.233" y="162.378" width="88.075" height="88.075" filterUnits="userSpaceOnUse">
      <feOffset input="SourceAlpha"/>
      <feGaussianBlur stdDeviation="10" result="blur-4"/>
      <feFlood flood-opacity="0.2" result="color-2"/>
      <feComposite operator="out" in="SourceGraphic" in2="blur-4"/>
      <feComposite operator="in" in="color-2"/>
      <feComposite operator="in" in2="SourceGraphic"/>
    </filter>
    <filter id="Path_4" x="139.335" y="125.48" width="88.073" height="88.073" filterUnits="userSpaceOnUse">
      <feOffset dy="3" input="SourceAlpha"/>
      <feGaussianBlur stdDeviation="3" result="blur-5"/>
      <feFlood/>
      <feComposite operator="in" in2="blur-5"/>
      <feComposite in="SourceGraphic"/>
    </filter>
    <filter id="Path_4-2" x="139.335" y="125.48" width="88.073" height="88.073" filterUnits="userSpaceOnUse">
      <feOffset input="SourceAlpha"/>
      <feGaussianBlur stdDeviation="10" result="blur-6"/>
      <feFlood flood-opacity="0.161" result="color-3"/>
      <feComposite operator="out" in="SourceGraphic" in2="blur-6"/>
      <feComposite operator="in" in="color-3"/>
      <feComposite operator="in" in2="SourceGraphic"/>
    </filter>
    <filter id="Path_5" x="190.938" y="110.498" width="88.074" height="88.074" filterUnits="userSpaceOnUse">
      <feOffset dy="3" input="SourceAlpha"/>
      <feGaussianBlur stdDeviation="3" result="blur-7"/>
      <feFlood/>
      <feComposite operator="in" in2="blur-7"/>
      <feComposite in="SourceGraphic"/>
    </filter>
    <filter id="Path_5-2" x="190.938" y="110.498" width="88.074" height="88.074" filterUnits="userSpaceOnUse">
      <feOffset input="SourceAlpha"/>
      <feGaussianBlur stdDeviation="10" result="blur-8"/>
      <feFlood flood-opacity="0.2" result="color-4"/>
      <feComposite operator="out" in="SourceGraphic" in2="blur-8"/>
      <feComposite operator="in" in="color-4"/>
      <feComposite operator="in" in2="SourceGraphic"/>
    </filter>
    <filter id="Path_7" x="162.236" y="213.3" width="88.074" height="88.074" filterUnits="userSpaceOnUse">
      <feOffset dy="3" input="SourceAlpha"/>
      <feGaussianBlur stdDeviation="3" result="blur-9"/>
      <feFlood/>
      <feComposite operator="in" in2="blur-9"/>
      <feComposite in="SourceGraphic"/>
    </filter>
    <filter id="Path_7-2" x="162.236" y="213.3" width="88.074" height="88.074" filterUnits="userSpaceOnUse">
      <feOffset input="SourceAlpha"/>
      <feGaussianBlur stdDeviation="10" result="blur-10"/>
      <feFlood flood-opacity="0.2" result="color-5"/>
      <feComposite operator="out" in="SourceGraphic" in2="blur-10"/>
      <feComposite operator="in" in="color-5"/>
      <feComposite operator="in" in2="SourceGraphic"/>
    </filter>
    <filter id="Path_8" x="111.187" y="225.784" width="88.074" height="88.074" filterUnits="userSpaceOnUse">
      <feOffset dy="3" input="SourceAlpha"/>
      <feGaussianBlur stdDeviation="3" result="blur-11"/>
      <feFlood/>
      <feComposite operator="in" in2="blur-11"/>
      <feComposite in="SourceGraphic"/>
    </filter>
    <filter id="Path_8-2" x="111.187" y="225.784" width="88.074" height="88.074" filterUnits="userSpaceOnUse">
      <feOffset input="SourceAlpha"/>
      <feGaussianBlur stdDeviation="10" result="blur-12"/>
      <feFlood flood-opacity="0.2" result="color-6"/>
      <feComposite operator="out" in="SourceGraphic" in2="blur-12"/>
      <feComposite operator="in" in="color-6"/>
      <feComposite operator="in" in2="SourceGraphic"/>
    </filter>
    <filter id="Path_9" x="73.734" y="188.331" width="88.075" height="88.075" filterUnits="userSpaceOnUse">
      <feOffset dy="3" input="SourceAlpha"/>
      <feGaussianBlur stdDeviation="3" result="blur-13"/>
      <feFlood/>
      <feComposite operator="in" in2="blur-13"/>
      <feComposite in="SourceGraphic"/>
    </filter>
    <filter id="Path_9-2" x="73.734" y="188.331" width="88.075" height="88.075" filterUnits="userSpaceOnUse">
      <feOffset input="SourceAlpha"/>
      <feGaussianBlur stdDeviation="10" result="blur-14"/>
      <feFlood flood-opacity="0.2" result="color-7"/>
      <feComposite operator="out" in="SourceGraphic" in2="blur-14"/>
      <feComposite operator="in" in="color-7"/>
      <feComposite operator="in" in2="SourceGraphic"/>
    </filter>
    <filter id="Path_10" x="125.186" y="176.251" width="88.073" height="88.073" filterUnits="userSpaceOnUse">
      <feOffset dy="3" input="SourceAlpha"/>
      <feGaussianBlur stdDeviation="3" result="blur-15"/>
      <feFlood/>
      <feComposite operator="in" in2="blur-15"/>
      <feComposite in="SourceGraphic"/>
    </filter>
    <filter id="Path_10-2" x="125.186" y="176.251" width="88.073" height="88.073" filterUnits="userSpaceOnUse">
      <feOffset input="SourceAlpha"/>
      <feGaussianBlur stdDeviation="10" result="blur-16"/>
      <feFlood flood-opacity="0.2" result="color-8"/>
      <feComposite operator="out" in="SourceGraphic" in2="blur-16"/>
      <feComposite operator="in" in="color-8"/>
      <feComposite operator="in" in2="SourceGraphic"/>
    </filter>
    <filter id="Path_12" x="149.195" y="263.792" width="88.076" height="88.076" filterUnits="userSpaceOnUse">
      <feOffset dy="3" input="SourceAlpha"/>
      <feGaussianBlur stdDeviation="3" result="blur-17"/>
      <feFlood/>
      <feComposite operator="in" in2="blur-17"/>
      <feComposite in="SourceGraphic"/>
    </filter>
    <filter id="Path_12-2" x="149.195" y="263.792" width="88.076" height="88.076" filterUnits="userSpaceOnUse">
      <feOffset input="SourceAlpha"/>
      <feGaussianBlur stdDeviation="10" result="blur-18"/>
      <feFlood flood-opacity="0.2" result="color-9"/>
      <feComposite operator="out" in="SourceGraphic" in2="blur-18"/>
      <feComposite operator="in" in="color-9"/>
      <feComposite operator="in" in2="SourceGraphic"/>
    </filter>
    <filter id="Path_17" x="139.335" y="125.48" width="88.073" height="88.073" filterUnits="userSpaceOnUse">
      <feOffset dy="3" input="SourceAlpha"/>
      <feGaussianBlur stdDeviation="3" result="blur-19"/>
      <feFlood/>
      <feComposite operator="in" in2="blur-19"/>
      <feComposite in="SourceGraphic"/>
    </filter>
    <filter id="Path_17-2" x="139.335" y="125.48" width="88.073" height="88.073" filterUnits="userSpaceOnUse">
      <feOffset input="SourceAlpha"/>
      <feGaussianBlur stdDeviation="10" result="blur-20"/>
      <feFlood flood-opacity="0.2" result="color-10"/>
      <feComposite operator="out" in="SourceGraphic" in2="blur-20"/>
      <feComposite operator="in" in="color-10"/>
      <feComposite operator="in" in2="SourceGraphic"/>
    </filter>
    <filter id="Path_32" x="149.195" y="263.792" width="88.076" height="88.076" filterUnits="userSpaceOnUse">
      <feOffset dy="3" input="SourceAlpha"/>
      <feGaussianBlur stdDeviation="3" result="blur-21"/>
      <feFlood/>
      <feComposite operator="in" in2="blur-21"/>
      <feComposite in="SourceGraphic"/>
    </filter>
    <filter id="Path_32-2" x="149.195" y="263.792" width="88.076" height="88.076" filterUnits="userSpaceOnUse">
      <feOffset input="SourceAlpha"/>
      <feGaussianBlur stdDeviation="10" result="blur-22"/>
      <feFlood flood-opacity="0.2" result="color-11"/>
      <feComposite operator="out" in="SourceGraphic" in2="blur-22"/>
      <feComposite operator="in" in="color-11"/>
      <feComposite operator="in" in2="SourceGraphic"/>
    </filter>
    <filter id="Path_2-3" x="0" y="113.899" width="88.074" height="88.074" filterUnits="userSpaceOnUse">
      <feOffset dy="3" input="SourceAlpha"/>
      <feGaussianBlur stdDeviation="3" result="blur-23"/>
      <feFlood/>
      <feComposite operator="in" in2="blur-23"/>
      <feComposite in="SourceGraphic"/>
    </filter>
    <filter id="Path_2-4" x="0" y="113.899" width="88.074" height="88.074" filterUnits="userSpaceOnUse">
      <feOffset input="SourceAlpha"/>
      <feGaussianBlur stdDeviation="10" result="blur-24"/>
      <feFlood flood-opacity="0.2" result="color-12"/>
      <feComposite operator="out" in="SourceGraphic" in2="blur-24"/>
      <feComposite operator="in" in="color-12"/>
      <feComposite operator="in" in2="SourceGraphic"/>
    </filter>
    <filter id="Path_3-3" x="51.047" y="101.414" width="88.075" height="88.075" filterUnits="userSpaceOnUse">
      <feOffset dy="3" input="SourceAlpha"/>
      <feGaussianBlur stdDeviation="3" result="blur-25"/>
      <feFlood/>
      <feComposite operator="in" in2="blur-25"/>
      <feComposite in="SourceGraphic"/>
    </filter>
    <filter id="Path_3-4" x="51.047" y="101.414" width="88.075" height="88.075" filterUnits="userSpaceOnUse">
      <feOffset input="SourceAlpha"/>
      <feGaussianBlur stdDeviation="10" result="blur-26"/>
      <feFlood flood-opacity="0.2" result="color-13"/>
      <feComposite operator="out" in="SourceGraphic" in2="blur-26"/>
      <feComposite operator="in" in="color-13"/>
      <feComposite operator="in" in2="SourceGraphic"/>
    </filter>
    <filter id="Path_4-3" x="87.947" y="138.314" width="88.073" height="88.073" filterUnits="userSpaceOnUse">
      <feOffset dy="3" input="SourceAlpha"/>
      <feGaussianBlur stdDeviation="3" result="blur-27"/>
      <feFlood/>
      <feComposite operator="in" in2="blur-27"/>
      <feComposite in="SourceGraphic"/>
    </filter>
    <filter id="Path_4-4" x="87.947" y="138.314" width="88.073" height="88.073" filterUnits="userSpaceOnUse">
      <feOffset input="SourceAlpha"/>
      <feGaussianBlur stdDeviation="10" result="blur-28"/>
      <feFlood flood-opacity="0.2" result="color-14"/>
      <feComposite operator="out" in="SourceGraphic" in2="blur-28"/>
      <feComposite operator="in" in="color-14"/>
      <feComposite operator="in" in2="SourceGraphic"/>
    </filter>
    <filter id="Path_5-3" x="36.344" y="153.295" width="88.074" height="88.074" filterUnits="userSpaceOnUse">
      <feOffset dy="3" input="SourceAlpha"/>
      <feGaussianBlur stdDeviation="3" result="blur-29"/>
      <feFlood/>
      <feComposite operator="in" in2="blur-29"/>
      <feComposite in="SourceGraphic"/>
    </filter>
    <filter id="Path_5-4" x="36.344" y="153.295" width="88.074" height="88.074" filterUnits="userSpaceOnUse">
      <feOffset input="SourceAlpha"/>
      <feGaussianBlur stdDeviation="10" result="blur-30"/>
      <feFlood flood-opacity="0.2" result="color-15"/>
      <feComposite operator="out" in="SourceGraphic" in2="blur-30"/>
      <feComposite operator="in" in="color-15"/>
      <feComposite operator="in" in2="SourceGraphic"/>
    </filter>
    <filter id="Path_7-3" x="65.046" y="50.494" width="88.074" height="88.074" filterUnits="userSpaceOnUse">
      <feOffset dy="3" input="SourceAlpha"/>
      <feGaussianBlur stdDeviation="3" result="blur-31"/>
      <feFlood/>
      <feComposite operator="in" in2="blur-31"/>
      <feComposite in="SourceGraphic"/>
    </filter>
    <filter id="Path_7-4" x="65.046" y="50.494" width="88.074" height="88.074" filterUnits="userSpaceOnUse">
      <feOffset input="SourceAlpha"/>
      <feGaussianBlur stdDeviation="10" result="blur-32"/>
      <feFlood flood-opacity="0.2" result="color-16"/>
      <feComposite operator="out" in="SourceGraphic" in2="blur-32"/>
      <feComposite operator="in" in="color-16"/>
      <feComposite operator="in" in2="SourceGraphic"/>
    </filter>
    <filter id="Path_8-3" x="116.095" y="38.009" width="88.074" height="88.074" filterUnits="userSpaceOnUse">
      <feOffset dy="3" input="SourceAlpha"/>
      <feGaussianBlur stdDeviation="3" result="blur-33"/>
      <feFlood/>
      <feComposite operator="in" in2="blur-33"/>
      <feComposite in="SourceGraphic"/>
    </filter>
    <filter id="Path_8-4" x="116.095" y="38.009" width="88.074" height="88.074" filterUnits="userSpaceOnUse">
      <feOffset input="SourceAlpha"/>
      <feGaussianBlur stdDeviation="10" result="blur-34"/>
      <feFlood flood-opacity="0.2" result="color-17"/>
      <feComposite operator="out" in="SourceGraphic" in2="blur-34"/>
      <feComposite operator="in" in="color-17"/>
      <feComposite operator="in" in2="SourceGraphic"/>
    </filter>
    <filter id="Path_9-3" x="153.547" y="75.462" width="88.075" height="88.075" filterUnits="userSpaceOnUse">
      <feOffset dy="3" input="SourceAlpha"/>
      <feGaussianBlur stdDeviation="3" result="blur-35"/>
      <feFlood/>
      <feComposite operator="in" in2="blur-35"/>
      <feComposite in="SourceGraphic"/>
    </filter>
    <filter id="Path_9-4" x="153.547" y="75.462" width="88.075" height="88.075" filterUnits="userSpaceOnUse">
      <feOffset input="SourceAlpha"/>
      <feGaussianBlur stdDeviation="10" result="blur-36"/>
      <feFlood flood-opacity="0.2" result="color-18"/>
      <feComposite operator="out" in="SourceGraphic" in2="blur-36"/>
      <feComposite operator="in" in="color-18"/>
      <feComposite operator="in" in2="SourceGraphic"/>
    </filter>
    <filter id="Path_10-3" x="102.096" y="87.543" width="88.073" height="88.073" filterUnits="userSpaceOnUse">
      <feOffset dy="3" input="SourceAlpha"/>
      <feGaussianBlur stdDeviation="3" result="blur-37"/>
      <feFlood/>
      <feComposite operator="in" in2="blur-37"/>
      <feComposite in="SourceGraphic"/>
    </filter>
    <filter id="Path_10-4" x="102.096" y="87.543" width="88.073" height="88.073" filterUnits="userSpaceOnUse">
      <feOffset input="SourceAlpha"/>
      <feGaussianBlur stdDeviation="10" result="blur-38"/>
      <feFlood flood-opacity="0.2" result="color-19"/>
      <feComposite operator="out" in="SourceGraphic" in2="blur-38"/>
      <feComposite operator="in" in="color-19"/>
      <feComposite operator="in" in2="SourceGraphic"/>
    </filter>
    <filter id="Path_12-3" x="78.085" y="0" width="88.076" height="88.076" filterUnits="userSpaceOnUse">
      <feOffset dy="3" input="SourceAlpha"/>
      <feGaussianBlur stdDeviation="3" result="blur-39"/>
      <feFlood/>
      <feComposite operator="in" in2="blur-39"/>
      <feComposite in="SourceGraphic"/>
    </filter>
    <filter id="Path_12-4" x="78.085" y="0" width="88.076" height="88.076" filterUnits="userSpaceOnUse">
      <feOffset input="SourceAlpha"/>
      <feGaussianBlur stdDeviation="10" result="blur-40"/>
      <feFlood flood-opacity="0.2" result="color-20"/>
      <feComposite operator="out" in="SourceGraphic" in2="blur-40"/>
      <feComposite operator="in" in="color-20"/>
      <feComposite operator="in" in2="SourceGraphic"/>
    </filter>
    <filter id="Path_19" x="13.724" y="62.736" width="88.074" height="88.074" filterUnits="userSpaceOnUse">
      <feOffset dy="3" input="SourceAlpha"/>
      <feGaussianBlur stdDeviation="3" result="blur-41"/>
      <feFlood/>
      <feComposite operator="in" in2="blur-41"/>
      <feComposite in="SourceGraphic"/>
    </filter>
    <filter id="Path_19-2" x="13.724" y="62.736" width="88.074" height="88.074" filterUnits="userSpaceOnUse">
      <feOffset input="SourceAlpha"/>
      <feGaussianBlur stdDeviation="10" result="blur-42"/>
      <feFlood flood-opacity="0.2" result="color-21"/>
      <feComposite operator="out" in="SourceGraphic" in2="blur-42"/>
      <feComposite operator="in" in="color-21"/>
      <feComposite operator="in" in2="SourceGraphic"/>
    </filter>
  </defs>
  <g id="Group_94" data-name="Group 94" transform="translate(-11.246 4.01)">
    <g id="Group_1" data-name="Group 1" transform="translate(337.035 201.146) rotate(135)">
      <g id="honeycomb-svgrepo-com" transform="translate(0 0)">
        <g data-type="innerShadowGroup">
          <g transform="matrix(-0.71, -0.71, 0.71, -0.71, 85.3, 375.43)" filter="url(#Path_2)">
            <path id="Path_2-5" data-name="Path 2" d="M37.685,0H14.915a3.54,3.54,0,0,0-3.058,1.766L.472,21.484a3.54,3.54,0,0,0,0,3.531L11.857,44.736A3.541,3.541,0,0,0,14.915,46.5h22.77a3.543,3.543,0,0,0,3.059-1.764L52.128,25.015a3.542,3.542,0,0,0,0-3.531L40.743,1.766A3.542,3.542,0,0,0,37.685,0Z" transform="translate(306.36 188.78) rotate(135)" fill="#fd0"/>
          </g>
          <g transform="matrix(-0.71, -0.71, 0.71, -0.71, 85.3, 375.43)" filter="url(#Path_2-2)">
            <path id="Path_2-6" data-name="Path 2" d="M37.685,0H14.915a3.54,3.54,0,0,0-3.058,1.766L.472,21.484a3.54,3.54,0,0,0,0,3.531L11.857,44.736A3.541,3.541,0,0,0,14.915,46.5h22.77a3.543,3.543,0,0,0,3.059-1.764L52.128,25.015a3.542,3.542,0,0,0,0-3.531L40.743,1.766A3.542,3.542,0,0,0,37.685,0Z" transform="translate(306.36 188.78) rotate(135)" fill="#fff"/>
          </g>
        </g>
        <g data-type="innerShadowGroup">
          <g transform="matrix(-0.71, -0.71, 0.71, -0.71, 85.3, 375.43)" filter="url(#Path_3)">
            <path id="Path_3-5" data-name="Path 3" d="M37.685,0H14.915a3.543,3.543,0,0,0-3.058,1.766L.471,21.487a3.543,3.543,0,0,0,0,3.53l11.385,19.72A3.541,3.541,0,0,0,14.915,46.5h22.77a3.542,3.542,0,0,0,3.058-1.766l11.384-19.72a3.54,3.54,0,0,0,0-3.53L40.743,1.766A3.544,3.544,0,0,0,37.685,0Z" transform="translate(255.31 201.26) rotate(135)" fill="#fd0"/>
          </g>
          <g transform="matrix(-0.71, -0.71, 0.71, -0.71, 85.3, 375.43)" filter="url(#Path_3-2)">
            <path id="Path_3-6" data-name="Path 3" d="M37.685,0H14.915a3.543,3.543,0,0,0-3.058,1.766L.471,21.487a3.543,3.543,0,0,0,0,3.53l11.385,19.72A3.541,3.541,0,0,0,14.915,46.5h22.77a3.542,3.542,0,0,0,3.058-1.766l11.384-19.72a3.54,3.54,0,0,0,0-3.53L40.743,1.766A3.544,3.544,0,0,0,37.685,0Z" transform="translate(255.31 201.26) rotate(135)" fill="#fff"/>
          </g>
        </g>
        <g data-type="innerShadowGroup">
          <g transform="matrix(-0.71, -0.71, 0.71, -0.71, 85.3, 375.43)" filter="url(#Path_4)">
            <path id="Path_4-5" data-name="Path 4" d="M40.743,1.766A3.539,3.539,0,0,0,37.685,0H14.915a3.539,3.539,0,0,0-3.058,1.766L.471,21.484a3.545,3.545,0,0,0,0,3.531L11.856,44.735A3.541,3.541,0,0,0,14.915,46.5h22.77a3.542,3.542,0,0,0,3.058-1.766L52.127,25.015a3.542,3.542,0,0,0,0-3.531Z" transform="translate(218.41 164.36) rotate(135)" fill="#fd0"/>
          </g>
          <g transform="matrix(-0.71, -0.71, 0.71, -0.71, 85.3, 375.43)" filter="url(#Path_4-2)">
            <path id="Path_4-6" data-name="Path 4" d="M40.743,1.766A3.539,3.539,0,0,0,37.685,0H14.915a3.539,3.539,0,0,0-3.058,1.766L.471,21.484a3.545,3.545,0,0,0,0,3.531L11.856,44.735A3.541,3.541,0,0,0,14.915,46.5h22.77a3.542,3.542,0,0,0,3.058-1.766L52.127,25.015a3.542,3.542,0,0,0,0-3.531Z" transform="translate(218.41 164.36) rotate(135)" fill="#fff"/>
          </g>
        </g>
        <g data-type="innerShadowGroup">
          <g transform="matrix(-0.71, -0.71, 0.71, -0.71, 85.3, 375.43)" filter="url(#Path_5)">
            <path id="Path_5-5" data-name="Path 5" d="M52.128,21.484,40.743,1.766A3.54,3.54,0,0,0,37.685,0H14.915a3.541,3.541,0,0,0-3.059,1.766L.471,21.484a3.544,3.544,0,0,0,0,3.531L11.856,44.735A3.542,3.542,0,0,0,14.915,46.5h22.77a3.542,3.542,0,0,0,3.058-1.766L52.128,25.015A3.542,3.542,0,0,0,52.128,21.484Z" transform="translate(270.01 149.38) rotate(135)" fill="#fd0"/>
          </g>
          <g transform="matrix(-0.71, -0.71, 0.71, -0.71, 85.3, 375.43)" filter="url(#Path_5-2)">
            <path id="Path_5-6" data-name="Path 5" d="M52.128,21.484,40.743,1.766A3.54,3.54,0,0,0,37.685,0H14.915a3.541,3.541,0,0,0-3.059,1.766L.471,21.484a3.544,3.544,0,0,0,0,3.531L11.856,44.735A3.542,3.542,0,0,0,14.915,46.5h22.77a3.542,3.542,0,0,0,3.058-1.766L52.128,25.015A3.542,3.542,0,0,0,52.128,21.484Z" transform="translate(270.01 149.38) rotate(135)" fill="#fff"/>
          </g>
        </g>
        <g data-type="innerShadowGroup">
          <g transform="matrix(-0.71, -0.71, 0.71, -0.71, 85.3, 375.43)" filter="url(#Path_7)">
            <path id="Path_7-5" data-name="Path 7" d="M14.914,46.5h22.77a3.538,3.538,0,0,0,3.058-1.766L52.127,25.017a3.545,3.545,0,0,0,0-3.531L40.742,1.765A3.544,3.544,0,0,0,37.684,0H14.914a3.545,3.545,0,0,0-3.058,1.765L.472,21.486a3.54,3.54,0,0,0,0,3.531L11.856,44.736A3.539,3.539,0,0,0,14.914,46.5Z" transform="translate(241.31 252.18) rotate(135)" fill="#fd0"/>
          </g>
          <g transform="matrix(-0.71, -0.71, 0.71, -0.71, 85.3, 375.43)" filter="url(#Path_7-2)">
            <path id="Path_7-6" data-name="Path 7" d="M14.914,46.5h22.77a3.538,3.538,0,0,0,3.058-1.766L52.127,25.017a3.545,3.545,0,0,0,0-3.531L40.742,1.765A3.544,3.544,0,0,0,37.684,0H14.914a3.545,3.545,0,0,0-3.058,1.765L.472,21.486a3.54,3.54,0,0,0,0,3.531L11.856,44.736A3.539,3.539,0,0,0,14.914,46.5Z" transform="translate(241.31 252.18) rotate(135)" fill="#fff"/>
          </g>
        </g>
        <g data-type="innerShadowGroup">
          <g transform="matrix(-0.71, -0.71, 0.71, -0.71, 85.3, 375.43)" filter="url(#Path_8)">
            <path id="Path_8-5" data-name="Path 8" d="M40.743,1.766A3.54,3.54,0,0,0,37.684,0H14.915a3.541,3.541,0,0,0-3.059,1.766L.471,21.484a3.544,3.544,0,0,0,0,3.531L11.856,44.735A3.542,3.542,0,0,0,14.915,46.5h22.77a3.542,3.542,0,0,0,3.058-1.766L52.128,25.015a3.54,3.54,0,0,0,0-3.531Z" transform="translate(190.26 264.67) rotate(135)" fill="#fd0"/>
          </g>
          <g transform="matrix(-0.71, -0.71, 0.71, -0.71, 85.3, 375.43)" filter="url(#Path_8-2)">
            <path id="Path_8-6" data-name="Path 8" d="M40.743,1.766A3.54,3.54,0,0,0,37.684,0H14.915a3.541,3.541,0,0,0-3.059,1.766L.471,21.484a3.544,3.544,0,0,0,0,3.531L11.856,44.735A3.542,3.542,0,0,0,14.915,46.5h22.77a3.542,3.542,0,0,0,3.058-1.766L52.128,25.015a3.54,3.54,0,0,0,0-3.531Z" transform="translate(190.26 264.67) rotate(135)" fill="#fff"/>
          </g>
        </g>
        <g data-type="innerShadowGroup">
          <g transform="matrix(-0.71, -0.71, 0.71, -0.71, 85.3, 375.43)" filter="url(#Path_9)">
            <path id="Path_9-5" data-name="Path 9" d="M40.743,1.766A3.545,3.545,0,0,0,37.684,0H14.915a3.546,3.546,0,0,0-3.059,1.766L.471,21.487a3.544,3.544,0,0,0,0,3.531L11.856,44.736A3.54,3.54,0,0,0,14.915,46.5h22.77a3.539,3.539,0,0,0,3.058-1.766L52.128,25.018a3.54,3.54,0,0,0,0-3.531Z" transform="translate(152.81 227.21) rotate(135)" fill="#fd0"/>
          </g>
          <g transform="matrix(-0.71, -0.71, 0.71, -0.71, 85.3, 375.43)" filter="url(#Path_9-2)">
            <path id="Path_9-6" data-name="Path 9" d="M40.743,1.766A3.545,3.545,0,0,0,37.684,0H14.915a3.546,3.546,0,0,0-3.059,1.766L.471,21.487a3.544,3.544,0,0,0,0,3.531L11.856,44.736A3.54,3.54,0,0,0,14.915,46.5h22.77a3.539,3.539,0,0,0,3.058-1.766L52.128,25.018a3.54,3.54,0,0,0,0-3.531Z" transform="translate(152.81 227.21) rotate(135)" fill="#fff"/>
          </g>
        </g>
        <g data-type="innerShadowGroup">
          <g transform="matrix(-0.71, -0.71, 0.71, -0.71, 85.3, 375.43)" filter="url(#Path_10)">
            <path id="Path_10-5" data-name="Path 10" d="M52.127,21.484,40.742,1.766A3.54,3.54,0,0,0,37.684,0H14.914a3.54,3.54,0,0,0-3.058,1.766L.472,21.484a3.54,3.54,0,0,0,0,3.531L11.856,44.735A3.541,3.541,0,0,0,14.914,46.5h22.77a3.542,3.542,0,0,0,3.058-1.766L52.127,25.015A3.544,3.544,0,0,0,52.127,21.484Z" transform="translate(204.26 215.13) rotate(135)" fill="#fd0"/>
          </g>
          <g transform="matrix(-0.71, -0.71, 0.71, -0.71, 85.3, 375.43)" filter="url(#Path_10-2)">
            <path id="Path_10-6" data-name="Path 10" d="M52.127,21.484,40.742,1.766A3.54,3.54,0,0,0,37.684,0H14.914a3.54,3.54,0,0,0-3.058,1.766L.472,21.484a3.54,3.54,0,0,0,0,3.531L11.856,44.735A3.541,3.541,0,0,0,14.914,46.5h22.77a3.542,3.542,0,0,0,3.058-1.766L52.127,25.015A3.544,3.544,0,0,0,52.127,21.484Z" transform="translate(204.26 215.13) rotate(135)" fill="#fff"/>
          </g>
        </g>
        <g data-type="innerShadowGroup">
          <g transform="matrix(-0.71, -0.71, 0.71, -0.71, 85.3, 375.43)" filter="url(#Path_12)">
            <path id="Path_12-5" data-name="Path 12" d="M40.743,1.766A3.541,3.541,0,0,0,37.684,0H14.915a3.543,3.543,0,0,0-3.059,1.766L.471,21.487a3.541,3.541,0,0,0,0,3.529l11.385,19.72A3.542,3.542,0,0,0,14.915,46.5h22.77a3.541,3.541,0,0,0,3.058-1.767l11.385-19.72a3.536,3.536,0,0,0,0-3.529Z" transform="translate(228.27 302.67) rotate(135)" fill="#fd0"/>
          </g>
          <g transform="matrix(-0.71, -0.71, 0.71, -0.71, 85.3, 375.43)" filter="url(#Path_12-2)">
            <path id="Path_12-6" data-name="Path 12" d="M40.743,1.766A3.541,3.541,0,0,0,37.684,0H14.915a3.543,3.543,0,0,0-3.059,1.766L.471,21.487a3.541,3.541,0,0,0,0,3.529l11.385,19.72A3.542,3.542,0,0,0,14.915,46.5h22.77a3.541,3.541,0,0,0,3.058-1.767l11.385-19.72a3.536,3.536,0,0,0,0-3.529Z" transform="translate(228.27 302.67) rotate(135)" fill="#fff"/>
          </g>
        </g>
        <g data-type="innerShadowGroup">
          <g transform="matrix(-0.71, -0.71, 0.71, -0.71, 85.3, 375.43)" filter="url(#Path_17)">
            <path id="Path_17-3" data-name="Path 17" d="M40.743,1.766A3.539,3.539,0,0,0,37.685,0H14.915a3.539,3.539,0,0,0-3.058,1.766L.471,21.484a3.545,3.545,0,0,0,0,3.531L11.856,44.735A3.541,3.541,0,0,0,14.915,46.5h22.77a3.542,3.542,0,0,0,3.058-1.766L52.127,25.015a3.542,3.542,0,0,0,0-3.531Z" transform="translate(218.41 164.36) rotate(135)" fill="#fd0"/>
          </g>
          <g transform="matrix(-0.71, -0.71, 0.71, -0.71, 85.3, 375.43)" filter="url(#Path_17-2)">
            <path id="Path_17-4" data-name="Path 17" d="M40.743,1.766A3.539,3.539,0,0,0,37.685,0H14.915a3.539,3.539,0,0,0-3.058,1.766L.471,21.484a3.545,3.545,0,0,0,0,3.531L11.856,44.735A3.541,3.541,0,0,0,14.915,46.5h22.77a3.542,3.542,0,0,0,3.058-1.766L52.127,25.015a3.542,3.542,0,0,0,0-3.531Z" transform="translate(218.41 164.36) rotate(135)" fill="#fff"/>
          </g>
        </g>
        <g data-type="innerShadowGroup">
          <g transform="matrix(-0.71, -0.71, 0.71, -0.71, 85.3, 375.43)" filter="url(#Path_32)">
            <path id="Path_32-3" data-name="Path 32" d="M40.743,1.766A3.541,3.541,0,0,0,37.684,0H14.915a3.543,3.543,0,0,0-3.059,1.766L.471,21.487a3.541,3.541,0,0,0,0,3.529l11.385,19.72A3.542,3.542,0,0,0,14.915,46.5h22.77a3.541,3.541,0,0,0,3.058-1.767l11.385-19.72a3.536,3.536,0,0,0,0-3.529Z" transform="translate(228.27 302.67) rotate(135)" fill="#fd0"/>
          </g>
          <g transform="matrix(-0.71, -0.71, 0.71, -0.71, 85.3, 375.43)" filter="url(#Path_32-2)">
            <path id="Path_32-4" data-name="Path 32" d="M40.743,1.766A3.541,3.541,0,0,0,37.684,0H14.915a3.543,3.543,0,0,0-3.059,1.766L.471,21.487a3.541,3.541,0,0,0,0,3.529l11.385,19.72A3.542,3.542,0,0,0,14.915,46.5h22.77a3.541,3.541,0,0,0,3.058-1.767l11.385-19.72a3.536,3.536,0,0,0,0-3.529Z" transform="translate(228.27 302.67) rotate(135)" fill="#fff"/>
          </g>
        </g>
      </g>
      <g id="honeycomb-svgrepo-com-2" data-name="honeycomb-svgrepo-com" transform="translate(192.176 284.464) rotate(180)">
        <g data-type="innerShadowGroup">
          <g transform="matrix(0.71, 0.71, -0.71, 0.71, 106.88, -90.97)" filter="url(#Path_2-3)">
            <path id="Path_2-7" data-name="Path 2" d="M37.685,0H14.915a3.54,3.54,0,0,0-3.058,1.766L.472,21.484a3.54,3.54,0,0,0,0,3.531L11.857,44.736A3.541,3.541,0,0,0,14.915,46.5h22.77a3.543,3.543,0,0,0,3.059-1.764L52.128,25.015a3.542,3.542,0,0,0,0-3.531L40.743,1.766A3.542,3.542,0,0,0,37.685,0Z" transform="translate(9 157.09) rotate(-45)" fill="#fd0"/>
          </g>
          <g transform="matrix(0.71, 0.71, -0.71, 0.71, 106.88, -90.97)" filter="url(#Path_2-4)">
            <path id="Path_2-8" data-name="Path 2" d="M37.685,0H14.915a3.54,3.54,0,0,0-3.058,1.766L.472,21.484a3.54,3.54,0,0,0,0,3.531L11.857,44.736A3.541,3.541,0,0,0,14.915,46.5h22.77a3.543,3.543,0,0,0,3.059-1.764L52.128,25.015a3.542,3.542,0,0,0,0-3.531L40.743,1.766A3.542,3.542,0,0,0,37.685,0Z" transform="translate(9 157.09) rotate(-45)" fill="#fff"/>
          </g>
        </g>
        <g data-type="innerShadowGroup">
          <g transform="matrix(0.71, 0.71, -0.71, 0.71, 106.88, -90.97)" filter="url(#Path_3-3)">
            <path id="Path_3-7" data-name="Path 3" d="M37.685,0H14.915a3.543,3.543,0,0,0-3.058,1.766L.471,21.487a3.543,3.543,0,0,0,0,3.53l11.385,19.72A3.541,3.541,0,0,0,14.915,46.5h22.77a3.542,3.542,0,0,0,3.058-1.766l11.384-19.72a3.54,3.54,0,0,0,0-3.53L40.743,1.766A3.544,3.544,0,0,0,37.685,0Z" transform="translate(60.05 144.61) rotate(-45)" fill="#fd0"/>
          </g>
          <g transform="matrix(0.71, 0.71, -0.71, 0.71, 106.88, -90.97)" filter="url(#Path_3-4)">
            <path id="Path_3-8" data-name="Path 3" d="M37.685,0H14.915a3.543,3.543,0,0,0-3.058,1.766L.471,21.487a3.543,3.543,0,0,0,0,3.53l11.385,19.72A3.541,3.541,0,0,0,14.915,46.5h22.77a3.542,3.542,0,0,0,3.058-1.766l11.384-19.72a3.54,3.54,0,0,0,0-3.53L40.743,1.766A3.544,3.544,0,0,0,37.685,0Z" transform="translate(60.05 144.61) rotate(-45)" fill="#fff"/>
          </g>
        </g>
        <g data-type="innerShadowGroup">
          <g transform="matrix(0.71, 0.71, -0.71, 0.71, 106.88, -90.97)" filter="url(#Path_4-3)">
            <path id="Path_4-7" data-name="Path 4" d="M40.743,1.766A3.539,3.539,0,0,0,37.685,0H14.915a3.539,3.539,0,0,0-3.058,1.766L.471,21.484a3.545,3.545,0,0,0,0,3.531L11.856,44.735A3.541,3.541,0,0,0,14.915,46.5h22.77a3.542,3.542,0,0,0,3.058-1.766L52.127,25.015a3.542,3.542,0,0,0,0-3.531Z" transform="translate(96.95 181.51) rotate(-45)" fill="#fd0"/>
          </g>
          <g transform="matrix(0.71, 0.71, -0.71, 0.71, 106.88, -90.97)" filter="url(#Path_4-4)">
            <path id="Path_4-8" data-name="Path 4" d="M40.743,1.766A3.539,3.539,0,0,0,37.685,0H14.915a3.539,3.539,0,0,0-3.058,1.766L.471,21.484a3.545,3.545,0,0,0,0,3.531L11.856,44.735A3.541,3.541,0,0,0,14.915,46.5h22.77a3.542,3.542,0,0,0,3.058-1.766L52.127,25.015a3.542,3.542,0,0,0,0-3.531Z" transform="translate(96.95 181.51) rotate(-45)" fill="#fff"/>
          </g>
        </g>
        <g data-type="innerShadowGroup">
          <g transform="matrix(0.71, 0.71, -0.71, 0.71, 106.88, -90.97)" filter="url(#Path_5-3)">
            <path id="Path_5-7" data-name="Path 5" d="M52.128,21.484,40.743,1.766A3.54,3.54,0,0,0,37.685,0H14.915a3.541,3.541,0,0,0-3.059,1.766L.471,21.484a3.544,3.544,0,0,0,0,3.531L11.856,44.735A3.542,3.542,0,0,0,14.915,46.5h22.77a3.542,3.542,0,0,0,3.058-1.766L52.128,25.015A3.542,3.542,0,0,0,52.128,21.484Z" transform="translate(45.34 196.49) rotate(-45)" fill="#fd0"/>
          </g>
          <g transform="matrix(0.71, 0.71, -0.71, 0.71, 106.88, -90.97)" filter="url(#Path_5-4)">
            <path id="Path_5-8" data-name="Path 5" d="M52.128,21.484,40.743,1.766A3.54,3.54,0,0,0,37.685,0H14.915a3.541,3.541,0,0,0-3.059,1.766L.471,21.484a3.544,3.544,0,0,0,0,3.531L11.856,44.735A3.542,3.542,0,0,0,14.915,46.5h22.77a3.542,3.542,0,0,0,3.058-1.766L52.128,25.015A3.542,3.542,0,0,0,52.128,21.484Z" transform="translate(45.34 196.49) rotate(-45)" fill="#fff"/>
          </g>
        </g>
        <g data-type="innerShadowGroup">
          <g transform="matrix(0.71, 0.71, -0.71, 0.71, 106.88, -90.97)" filter="url(#Path_7-3)">
            <path id="Path_7-7" data-name="Path 7" d="M14.914,46.5h22.77a3.538,3.538,0,0,0,3.058-1.766L52.127,25.017a3.545,3.545,0,0,0,0-3.531L40.742,1.765A3.544,3.544,0,0,0,37.684,0H14.914a3.545,3.545,0,0,0-3.058,1.765L.472,21.486a3.54,3.54,0,0,0,0,3.531L11.856,44.736A3.539,3.539,0,0,0,14.914,46.5Z" transform="translate(74.05 93.69) rotate(-45)" fill="#fd0"/>
          </g>
          <g transform="matrix(0.71, 0.71, -0.71, 0.71, 106.88, -90.97)" filter="url(#Path_7-4)">
            <path id="Path_7-8" data-name="Path 7" d="M14.914,46.5h22.77a3.538,3.538,0,0,0,3.058-1.766L52.127,25.017a3.545,3.545,0,0,0,0-3.531L40.742,1.765A3.544,3.544,0,0,0,37.684,0H14.914a3.545,3.545,0,0,0-3.058,1.765L.472,21.486a3.54,3.54,0,0,0,0,3.531L11.856,44.736A3.539,3.539,0,0,0,14.914,46.5Z" transform="translate(74.05 93.69) rotate(-45)" fill="#fff"/>
          </g>
        </g>
        <g data-type="innerShadowGroup">
          <g transform="matrix(0.71, 0.71, -0.71, 0.71, 106.88, -90.97)" filter="url(#Path_8-3)">
            <path id="Path_8-7" data-name="Path 8" d="M40.743,1.766A3.54,3.54,0,0,0,37.684,0H14.915a3.541,3.541,0,0,0-3.059,1.766L.471,21.484a3.544,3.544,0,0,0,0,3.531L11.856,44.735A3.542,3.542,0,0,0,14.915,46.5h22.77a3.542,3.542,0,0,0,3.058-1.766L52.128,25.015a3.54,3.54,0,0,0,0-3.531Z" transform="translate(125.09 81.2) rotate(-45)" fill="#fd0"/>
          </g>
          <g transform="matrix(0.71, 0.71, -0.71, 0.71, 106.88, -90.97)" filter="url(#Path_8-4)">
            <path id="Path_8-8" data-name="Path 8" d="M40.743,1.766A3.54,3.54,0,0,0,37.684,0H14.915a3.541,3.541,0,0,0-3.059,1.766L.471,21.484a3.544,3.544,0,0,0,0,3.531L11.856,44.735A3.542,3.542,0,0,0,14.915,46.5h22.77a3.542,3.542,0,0,0,3.058-1.766L52.128,25.015a3.54,3.54,0,0,0,0-3.531Z" transform="translate(125.09 81.2) rotate(-45)" fill="#fff"/>
          </g>
        </g>
        <g data-type="innerShadowGroup">
          <g transform="matrix(0.71, 0.71, -0.71, 0.71, 106.88, -90.97)" filter="url(#Path_9-3)">
            <path id="Path_9-7" data-name="Path 9" d="M40.743,1.766A3.545,3.545,0,0,0,37.684,0H14.915a3.546,3.546,0,0,0-3.059,1.766L.471,21.487a3.544,3.544,0,0,0,0,3.531L11.856,44.736A3.54,3.54,0,0,0,14.915,46.5h22.77a3.539,3.539,0,0,0,3.058-1.766L52.128,25.018a3.54,3.54,0,0,0,0-3.531Z" transform="translate(162.55 118.65) rotate(-45)" fill="#fd0"/>
          </g>
          <g transform="matrix(0.71, 0.71, -0.71, 0.71, 106.88, -90.97)" filter="url(#Path_9-4)">
            <path id="Path_9-8" data-name="Path 9" d="M40.743,1.766A3.545,3.545,0,0,0,37.684,0H14.915a3.546,3.546,0,0,0-3.059,1.766L.471,21.487a3.544,3.544,0,0,0,0,3.531L11.856,44.736A3.54,3.54,0,0,0,14.915,46.5h22.77a3.539,3.539,0,0,0,3.058-1.766L52.128,25.018a3.54,3.54,0,0,0,0-3.531Z" transform="translate(162.55 118.65) rotate(-45)" fill="#fff"/>
          </g>
        </g>
        <g data-type="innerShadowGroup">
          <g transform="matrix(0.71, 0.71, -0.71, 0.71, 106.88, -90.97)" filter="url(#Path_10-3)">
            <path id="Path_10-7" data-name="Path 10" d="M52.127,21.484,40.742,1.766A3.54,3.54,0,0,0,37.684,0H14.914a3.54,3.54,0,0,0-3.058,1.766L.472,21.484a3.54,3.54,0,0,0,0,3.531L11.856,44.735A3.541,3.541,0,0,0,14.914,46.5h22.77a3.542,3.542,0,0,0,3.058-1.766L52.127,25.015A3.544,3.544,0,0,0,52.127,21.484Z" transform="translate(111.1 130.74) rotate(-45)" fill="#fd0"/>
          </g>
          <g transform="matrix(0.71, 0.71, -0.71, 0.71, 106.88, -90.97)" filter="url(#Path_10-4)">
            <path id="Path_10-8" data-name="Path 10" d="M52.127,21.484,40.742,1.766A3.54,3.54,0,0,0,37.684,0H14.914a3.54,3.54,0,0,0-3.058,1.766L.472,21.484a3.54,3.54,0,0,0,0,3.531L11.856,44.735A3.541,3.541,0,0,0,14.914,46.5h22.77a3.542,3.542,0,0,0,3.058-1.766L52.127,25.015A3.544,3.544,0,0,0,52.127,21.484Z" transform="translate(111.1 130.74) rotate(-45)" fill="#fff"/>
          </g>
        </g>
        <g data-type="innerShadowGroup">
          <g transform="matrix(0.71, 0.71, -0.71, 0.71, 106.88, -90.97)" filter="url(#Path_12-3)">
            <path id="Path_12-7" data-name="Path 12" d="M40.743,1.766A3.541,3.541,0,0,0,37.684,0H14.915a3.543,3.543,0,0,0-3.059,1.766L.471,21.487a3.541,3.541,0,0,0,0,3.529l11.385,19.72A3.542,3.542,0,0,0,14.915,46.5h22.77a3.541,3.541,0,0,0,3.058-1.767l11.385-19.72a3.536,3.536,0,0,0,0-3.529Z" transform="translate(87.09 43.19) rotate(-45)" fill="#fd0"/>
          </g>
          <g transform="matrix(0.71, 0.71, -0.71, 0.71, 106.88, -90.97)" filter="url(#Path_12-4)">
            <path id="Path_12-8" data-name="Path 12" d="M40.743,1.766A3.541,3.541,0,0,0,37.684,0H14.915a3.543,3.543,0,0,0-3.059,1.766L.471,21.487a3.541,3.541,0,0,0,0,3.529l11.385,19.72A3.542,3.542,0,0,0,14.915,46.5h22.77a3.541,3.541,0,0,0,3.058-1.767l11.385-19.72a3.536,3.536,0,0,0,0-3.529Z" transform="translate(87.09 43.19) rotate(-45)" fill="#fff"/>
          </g>
        </g>
        <g data-type="innerShadowGroup">
          <g transform="matrix(0.71, 0.71, -0.71, 0.71, 106.88, -90.97)" filter="url(#Path_19)">
            <path id="Path_19-3" data-name="Path 19" d="M14.914,46.5h22.77a3.538,3.538,0,0,0,3.058-1.766L52.127,25.017a3.545,3.545,0,0,0,0-3.531L40.742,1.765A3.544,3.544,0,0,0,37.684,0H14.914a3.545,3.545,0,0,0-3.058,1.765L.472,21.486a3.54,3.54,0,0,0,0,3.531L11.856,44.736A3.539,3.539,0,0,0,14.914,46.5Z" transform="translate(22.72 105.93) rotate(-45)" fill="#fd0"/>
          </g>
          <g transform="matrix(0.71, 0.71, -0.71, 0.71, 106.88, -90.97)" filter="url(#Path_19-2)">
            <path id="Path_19-4" data-name="Path 19" d="M14.914,46.5h22.77a3.538,3.538,0,0,0,3.058-1.766L52.127,25.017a3.545,3.545,0,0,0,0-3.531L40.742,1.765A3.544,3.544,0,0,0,37.684,0H14.914a3.545,3.545,0,0,0-3.058,1.765L.472,21.486a3.54,3.54,0,0,0,0,3.531L11.856,44.736A3.539,3.539,0,0,0,14.914,46.5Z" transform="translate(22.72 105.93) rotate(-45)" fill="#fff"/>
          </g>
        </g>
      </g>
    </g>
  </g>
</svg>
